<svg width="114" height="34" viewBox="0 0 114 34" fill="none" xmlns="http://www.w3.org/2000/svg">
<path d="M36.8106 13.2956C36.8106 10.8706 34.822 8.29513 31.3807 8.29513C27.5163 8.29513 23.2711 11.6567 22.6223 18.363C21.9594 25.1363 25.5135 28.1466 29.0959 28.1466C32.6782 28.1466 34.554 26.4909 36.4721 24.2833C34.822 21.8249 32.6923 22.9621 32.2833 23.213C31.6071 23.6577 30.842 23.8773 30.069 23.8485C28.6869 23.8485 27.2765 23.1126 27.2765 20.0521C36.1336 19.0152 36.8106 15.7206 36.8106 13.2956ZM32.4243 13.697C32.3679 14.4496 32.1141 15.7373 27.6291 16.4565C28.574 12.4761 30.3793 12.1751 31.2114 12.1751C31.3786 12.1673 31.5452 12.202 31.7001 12.2768C31.855 12.3517 31.9946 12.465 32.1095 12.6092C32.2244 12.7534 32.312 12.9251 32.3663 13.1127C32.4206 13.3003 32.4404 13.4995 32.4243 13.697ZM17.418 14.3492C17.418 14.3492 15.514 21.4402 15.3589 22.0256C15.3025 21.4235 13.9062 8.69651 13.9062 8.69651C10.6624 8.69651 8.92763 11.4393 8.01089 14.3325C8.01089 14.3325 5.69788 21.4402 5.50043 22.0423C5.48633 21.4904 5.14784 14.4161 5.14784 14.4161C4.95039 10.8706 2.21428 8.71323 0 8.71323L2.6797 27.9961C6.07868 27.9793 7.91216 25.2533 8.87121 22.3601C8.87121 22.3601 10.9162 16.0885 11.0009 15.8042C11.015 16.0718 12.4676 27.9961 12.4676 27.9961C15.8807 27.9961 17.7142 25.4373 18.7015 22.6444L23.4826 8.71323C20.1118 8.71323 18.3348 11.4393 17.418 14.3492ZM49.3347 8.26168C47.2332 8.26168 45.6254 9.61633 44.2714 11.6065V11.5898L45.4844 0C42.6918 0 40.4211 2.87654 39.9839 7.15789L37.8684 27.8455C39.4762 27.8455 41.1827 27.2937 42.0995 25.8888C42.5443 26.6043 43.1274 27.1828 43.7999 27.5756C44.4723 27.9685 45.2144 28.1643 45.9639 28.1466C50.6745 28.1466 53.9042 21.6576 53.9042 15.5701C53.876 10.0177 51.6053 8.26168 49.3347 8.26168ZM48.8974 18.2125C48.4038 21.6075 46.8101 23.9154 45.2728 23.9154C43.7355 23.9154 43.0585 23.0959 43.0585 23.0959C43.3547 20.119 43.538 18.2961 44.1022 16.7241C44.6663 15.152 46.0062 12.6434 47.4025 12.6434C48.7705 12.6434 49.3911 14.8008 48.8974 18.2125ZM65.6667 8.71323H62.3806L62.3947 8.51254C62.6203 5.97049 63.128 4.63256 64.8064 4.41515C65.9488 4.28136 66.4565 3.57895 66.5835 2.80964C66.6822 2.20757 66.9925 0.117068 66.9925 0.117068C60.3919 0.0668962 58.3187 3.44516 57.7828 8.59616L57.7687 8.71323H57.6981C56.6263 8.71323 55.4415 10.1515 55.2441 11.9744L55.1736 12.6434H57.3737L55.5262 30.7388L54.962 33.9833C55.0325 33.9833 55.1172 34 55.1877 34C58.2764 33.8662 60.2509 30.9729 60.6881 26.7752L62.1267 12.6434H63.1563C64.1717 12.6434 65.3564 11.4393 65.568 9.43237L65.6667 8.71323ZM82.7604 8.37875C78.9665 8.37875 75.3841 11.6901 74.2841 16.8913C73.184 22.0925 74.8482 28.2469 80.4333 28.2469C86.0183 28.2469 89.2198 21.8416 89.2198 16.5066C89.2198 11.2051 86.1876 8.37875 82.7604 8.37875ZM84.2977 18.0453C84.1002 20.4033 83.2258 23.9823 80.8282 23.9823C78.4305 23.9823 78.7549 19.8013 78.9947 17.8111C79.2485 15.6872 80.2499 12.6601 82.4078 12.6601C84.34 12.6601 84.5233 15.3861 84.2977 18.0453ZM107.964 14.3492C107.964 14.3492 106.06 21.4402 105.904 22.0256C105.848 21.4235 104.452 8.69651 104.452 8.69651C101.208 8.69651 99.4732 11.4393 98.5565 14.3325C98.5565 14.3325 96.2435 21.4402 96.046 22.0423C96.0319 21.4904 95.6934 14.4161 95.6934 14.4161C95.496 10.8706 92.7599 8.71323 90.5456 8.71323L93.2112 27.9961C96.6102 27.9793 98.4436 25.2533 99.4027 22.3601C99.4027 22.3601 101.448 16.0885 101.518 15.8042C101.546 16.0718 102.985 27.9961 102.985 27.9961C106.398 27.9961 108.232 25.4373 109.219 22.6444L114 8.71323C110.643 8.71323 108.866 11.4393 107.964 14.3492ZM68.7695 0.117068L66.0052 26.5578L65.4411 29.819C65.5116 29.819 65.5962 29.8357 65.6667 29.8357C68.6426 29.7855 70.7581 26.6916 71.153 22.7949L72.7467 7.62617C73.2263 2.99361 70.8992 0.117068 68.7695 0.117068Z" fill="black"/>
</svg>
